<?xml version="1.0" standalone="no"?><svg xmlns:xlink="http://www.w3.org/1999/xlink" xmlns="http://www.w3.org/2000/svg" viewBox="0 0 1000 583.3333333333333" preserveAspectRatio="xMaxYMax slice"><g transform="scale(1.24750499001996)"><rect x="0" y="0" width="801.5999999999999" height="534.4" fill="#121212"/><g transform="translate(356.71,89.51) scale(1.069) rotate(0)"><rect width="20" height="2" fill="#0a2c39"/><rect y="4" width="20" height="2" fill="#0a2c39"/><rect y="8" width="20" height="2" fill="#0a2c39"/><rect y="12" width="20" height="2" fill="#0a2c39"/><rect y="16" width="20" height="2" fill="#0a2c39"/></g><rect x="352.704" y="152.304" width="29.391999999999996" height="29.391999999999996" fill="#121212"/><g transform="translate(352.7,167) scale(0.735) rotate(0)"><rect width="20" height="2" fill="#073547"/><rect y="4" width="20" height="2" fill="#073547"/><rect y="8" width="20" height="2" fill="#073547"/><rect y="12" width="20" height="2" fill="#073547"/><rect y="16" width="20" height="2" fill="#073547"/></g><g transform="translate(749.5,215.1) scale(1.8704999999999998) rotate(0)"><path d="M5 0H10L5 5L0 10V5L5 0Z" fill="#0a2c3a"/><path d="M20 15V20H15L20 15Z" fill="#0a2c3a"/><path d="M20 5V10L15 15L10 20H5L20 5Z" fill="#0a2c3a"/><path d="M15 0H20L5 15.0002L0 20.0002V15.0002L15 0Z" fill="#0a2c3a"/></g><rect x="277.888" y="277.888" width="45.42399999999999" height="45.42399999999999" fill="#121212"/><g transform="translate(678.69,277.89) scale(2.271) rotate(0)"><rect width="2" height="20" fill="#142f39"/><rect x="4" width="2" height="20" fill="#142f39"/><rect x="8" width="2" height="20" fill="#142f39"/><rect x="12" width="2" height="20" fill="#142f39"/><rect x="16" width="2" height="20" fill="#142f39"/></g><g transform="translate(140.28,340.68) scale(2.6719999999999997) rotate(0)"><path d="M5 0H10L5 5L0 10V5L5 0Z" fill="#132429"/><path d="M20 15V20H15L20 15Z" fill="#132429"/><path d="M20 5V10L15 15L10 20H5L20 5Z" fill="#132429"/><path d="M15 0H20L5 15.0002L0 20.0002V15.0002L15 0Z" fill="#132429"/></g><g transform="translate(470.27,403.47) scale(3.073) rotate(0)"><rect width="20" height="2" fill="#111415"/><rect y="4" width="20" height="2" fill="#111415"/><rect y="8" width="20" height="2" fill="#111415"/><rect y="12" width="20" height="2" fill="#111415"/><rect y="16" width="20" height="2" fill="#111415"/></g><g transform="translate(334,467.6) scale(3.34) rotate(0)"><path d="M5 0H10L5 5L0 10V5L5 0Z" fill="#154e62"/><path d="M20 15V20H15L20 15Z" fill="#154e62"/><path d="M20 5V10L15 15L10 20H5L20 5Z" fill="#154e62"/><path d="M15 0H20L5 15.0002L0 20.0002V15.0002L15 0Z" fill="#154e62"/></g></g></svg>