<?xml version="1.0" standalone="no"?><svg xmlns:xlink="http://www.w3.org/1999/xlink" xmlns="http://www.w3.org/2000/svg" viewBox="0 0 1000 583.3333333333333" preserveAspectRatio="xMaxYMax slice"><g transform="scale(1.24750499001996)"><rect x="0" y="0" width="801.5999999999999" height="534.4" fill="#FFFFFF"/><rect x="694.72" y="26.72" width="13.36" height="13.36" fill="#FFFFFF"/><g transform="translate(701.4,33.4) scale(0.33399999999999996) rotate(0)"><rect width="2" height="20" fill="#89b4c2"/><rect x="4" width="2" height="20" fill="#89b4c2"/><rect x="8" width="2" height="20" fill="#89b4c2"/><rect x="12" width="2" height="20" fill="#89b4c2"/><rect x="16" width="2" height="20" fill="#89b4c2"/></g><rect x="289.912" y="89.512" width="21.37599999999999" height="21.37599999999999" fill="#FFFFFF"/><g transform="translate(289.91,89.51) scale(0.5345) rotate(0)"><path d="M5 0H10L5 5L0 10V5L5 0Z" fill="#8da5af"/><path d="M20 15V20H15L20 15Z" fill="#8da5af"/><path d="M20 5V10L15 15L10 20H5L20 5Z" fill="#8da5af"/><path d="M15 0H20L5 15.0002L0 20.0002V15.0002L15 0Z" fill="#8da5af"/></g><rect x="623.9119999999999" y="89.512" width="21.37599999999999" height="21.37599999999999" fill="#FFFFFF"/><rect x="85.50399999999999" y="152.304" width="29.391999999999996" height="29.391999999999996" fill="#FFFFFF"/><g transform="translate(100.2,167) scale(0.735) rotate(0)"><rect width="20" height="2" fill="#426b7a"/><rect y="4" width="20" height="2" fill="#426b7a"/><rect y="8" width="20" height="2" fill="#426b7a"/><rect y="12" width="20" height="2" fill="#426b7a"/><rect y="16" width="20" height="2" fill="#426b7a"/></g><rect x="611.8879999999999" y="277.888" width="45.42399999999999" height="45.42399999999999" fill="#FFFFFF"/><g transform="translate(611.89,300.6) scale(1.1355) rotate(0)"><path d="M5 0H10L5 5L0 10V5L5 0Z" fill="#5c7f8d"/><path d="M20 15V20H15L20 15Z" fill="#5c7f8d"/><path d="M20 5V10L15 15L10 20H5L20 5Z" fill="#5c7f8d"/><path d="M15 0H20L5 15.0002L0 20.0002V15.0002L15 0Z" fill="#5c7f8d"/></g><rect x="678.688" y="277.888" width="45.42399999999999" height="45.42399999999999" fill="#FFFFFF"/><rect x="2.672000000000003" y="403.472" width="61.45599999999999" height="61.45599999999999" fill="#FFFFFF"/><rect x="203.07199999999997" y="403.472" width="61.45599999999999" height="61.45599999999999" fill="#FFFFFF"/><rect x="269.872" y="403.472" width="61.45599999999999" height="61.45599999999999" fill="#FFFFFF"/><g transform="translate(269.87,434.2) scale(1.5365) rotate(0)"><path d="M5 0H10L5 5L0 10V5L5 0Z" fill="#498ba1"/><path d="M20 15V20H15L20 15Z" fill="#498ba1"/><path d="M20 5V10L15 15L10 20H5L20 5Z" fill="#498ba1"/><path d="M15 0H20L5 15.0002L0 20.0002V15.0002L15 0Z" fill="#498ba1"/></g><rect x="603.872" y="403.472" width="61.45599999999999" height="61.45599999999999" fill="#FFFFFF"/><rect x="66.8" y="467.59999999999997" width="66.8" height="66.8" fill="#FFFFFF"/><g transform="translate(66.8,501) scale(1.67) rotate(0)"><path d="M5 0H10L5 5L0 10V5L5 0Z" fill="#426b7b"/><path d="M20 15V20H15L20 15Z" fill="#426b7b"/><path d="M20 5V10L15 15L10 20H5L20 5Z" fill="#426b7b"/><path d="M15 0H20L5 15.0002L0 20.0002V15.0002L15 0Z" fill="#426b7b"/></g><rect x="601.1999999999999" y="467.59999999999997" width="66.8" height="66.8" fill="#FFFFFF"/><g transform="translate(601.2,467.6) scale(1.67) rotate(0)"><rect width="20" height="2" fill="#cbd6db"/><rect y="4" width="20" height="2" fill="#cbd6db"/><rect y="8" width="20" height="2" fill="#cbd6db"/><rect y="12" width="20" height="2" fill="#cbd6db"/><rect y="16" width="20" height="2" fill="#cbd6db"/></g></g></svg>